<svg width="132" height="84" viewBox="0 0 132 84" fill="none" xmlns="http://www.w3.org/2000/svg">
<g clip-path="url(#clip0_1_91)">
<path d="M70.4498 55.6599C69.7516 55.6599 69.1819 56.2274 69.1819 56.9307C69.1819 57.634 69.7481 58.2015 70.4498 58.2015C71.1515 58.2015 71.7177 57.634 71.7177 56.9307C71.7177 56.2274 71.1515 55.6599 70.4498 55.6599Z" fill="#0094D2" stroke="#0094D2"/>
<path d="M131.132 82.2592H120.078C120.103 82.1791 120.134 82.0991 120.148 82.012L121.603 75.8044H122.656C124.222 75.8044 125.501 74.5266 125.501 72.9529C125.501 71.3793 124.226 70.1015 122.656 70.1015H121.041C118.956 65.5825 113.673 62.5779 107.656 62.55C104.811 59.3017 100.501 57.1431 95.7139 56.5025V33.6912C97.0686 33.35 98.1698 32.7756 98.8784 32.0479C99.983 33.2525 102.071 34.0463 104.52 34.0463C106.969 34.0463 109.008 33.2665 110.123 32.0862C111.2 33.2665 113.19 34.0463 115.528 34.0463C119.036 34.0463 121.784 32.2916 121.784 30.0495C121.784 19.9634 111.113 11.5762 97.2111 10.0652C96.7004 8.33837 94.8767 7.05367 92.7057 7.05367C90.5346 7.05367 88.7144 8.33837 88.2003 10.0652C74.2986 11.5762 63.6275 19.9599 63.6275 30.0495C63.6275 32.2916 66.3752 34.0463 69.8836 34.0463C72.2179 34.0463 74.2118 33.2665 75.2886 32.0862C76.4037 33.2665 78.4705 34.0463 80.8952 34.0463C83.3198 34.0463 85.4318 33.2491 86.5364 32.0479C87.2485 32.7756 88.3462 33.3465 89.701 33.6912V56.4955C83.4796 57.3207 78.1822 60.67 75.7506 65.4989C75.5353 65.9271 75.7055 66.4529 76.1327 66.6687C76.2578 66.7314 76.3933 66.7627 76.5218 66.7627C76.8379 66.7627 77.1436 66.5886 77.2964 66.2857C79.8218 61.2757 85.8695 58.0414 92.7022 58.0414C97.6244 58.0414 102.234 59.7578 105.367 62.6893C102.008 63.1071 98.9166 64.4788 96.6657 66.5921C96.3148 66.9194 96.2975 67.473 96.6275 67.8211C96.954 68.1728 97.5063 68.1902 97.8537 67.8594C100.268 65.5894 103.808 64.2873 107.566 64.2873C112.603 64.2873 117.039 66.5782 119.071 70.0981H77.8383C77.3589 70.0981 76.9699 70.488 76.9699 70.9685C76.9699 71.4489 77.3589 71.8389 77.8383 71.8389H122.649C123.26 71.8389 123.757 72.3367 123.757 72.9495C123.757 73.5622 123.26 74.0601 122.649 74.0601H76.5183C76.0389 74.0601 75.6499 74.45 75.6499 74.9305C75.6499 75.4109 76.0389 75.8009 76.5183 75.8009H119.814L118.446 81.629C118.446 81.629 118.439 81.6569 118.439 81.6708C118.376 82.0085 118.081 82.2557 117.737 82.2557H67.2193C67.3026 82.0016 67.3513 81.7335 67.3513 81.4515C67.3513 80.0484 66.2119 78.9064 64.812 78.9064H62.5055C62.5888 78.6523 62.6375 78.3842 62.6375 78.1022C62.6375 77.4616 62.3978 76.8767 62.0053 76.4276C62.3978 75.9784 62.6375 75.3935 62.6375 74.7529C62.6375 74.1123 62.3978 73.5274 62.0053 73.0783C62.3978 72.6292 62.6375 72.0443 62.6375 71.4036C62.6375 70.763 62.3978 70.1781 62.0053 69.729C62.3283 69.36 62.5472 68.8934 62.6132 68.3816C64.0443 69.3286 65.215 70.6795 65.9409 72.3158C65.9409 72.3228 65.9479 72.3263 65.9514 72.3298C65.9548 72.3402 65.9583 72.3472 65.9618 72.3576C65.9618 72.3611 65.9653 72.3646 65.9687 72.368C65.7916 72.9878 65.8506 73.6423 66.1424 74.2202C66.4481 74.826 66.9726 75.2752 67.6187 75.4841C67.8793 75.5676 68.1467 75.6129 68.4107 75.6129C68.8033 75.6129 69.1958 75.5189 69.5571 75.3378L72.673 73.7502C73.92 73.1131 74.4202 71.5777 73.7845 70.3278C73.4962 69.7603 73.0238 69.3495 72.4749 69.1267C72.4576 68.312 72.3742 67.5008 72.2248 66.7035C73.5101 65.9724 74.3785 64.5902 74.3785 63.0061C74.3785 62.5361 74.2952 62.073 74.1423 61.6309C74.1909 61.4916 74.2153 61.3384 74.2118 61.1852C75.2053 59.9841 75.7819 58.5183 75.8792 56.9516H76.8587C77.4527 56.9516 78.0189 56.694 78.408 56.2414C78.8005 55.7853 78.9777 55.183 78.8943 54.5842C78.1648 49.4593 73.7116 45.5947 68.5427 45.5947C63.3739 45.5947 58.9449 49.4593 58.1981 54.5389C57.9897 54.5285 57.7778 54.525 57.5694 54.525C55.3879 54.525 53.3141 55.0019 51.4418 55.848C51.3862 55.8654 51.3306 55.8897 51.282 55.9211C49.9655 56.5373 48.7566 57.3381 47.6833 58.292C42.6117 55.7818 36.5015 57.3207 33.2362 62.0278C32.9514 62.4386 32.8506 62.9539 32.9548 63.4413C33.0625 63.9252 33.3682 64.3465 33.7955 64.5972L38.3842 67.2919C38.6621 67.4555 38.9747 67.5356 39.2908 67.5356C39.5375 67.5356 39.7876 67.4834 40.0168 67.3824C40.5379 67.1526 40.9165 66.6826 41.0312 66.1256C41.4341 64.1863 42.8444 62.6545 44.6403 62.0278C43.3794 64.2212 42.6499 66.7627 42.6499 69.4714C42.6499 69.6246 42.6568 69.7743 42.6638 69.924C42.0767 70.2234 41.6356 70.7282 41.4202 71.3479C41.1979 71.9886 41.2396 72.6779 41.5348 73.2907C41.8301 73.9034 42.3477 74.363 42.9868 74.5858L46.2868 75.7347C46.5613 75.8287 46.8426 75.874 47.1171 75.874C48.1696 75.874 49.1526 75.2125 49.5174 74.1645C49.7675 73.4369 49.6702 72.6744 49.3124 72.0547C50.0419 70.5333 51.1604 69.2729 52.5152 68.3747C52.5812 68.8865 52.8 69.353 53.1231 69.722C52.7305 70.1712 52.4908 70.7561 52.4908 71.3967C52.4908 72.0373 52.7305 72.6222 53.1231 73.0713C52.7305 73.5205 52.4908 74.1054 52.4908 74.746C52.4908 75.3866 52.7305 75.9715 53.1231 76.4206C52.7305 76.8697 52.4908 77.4546 52.4908 78.0952C52.4908 78.3773 52.5395 78.6453 52.6228 78.8995H50.3163C48.9164 78.8995 47.7771 80.0414 47.7771 81.4445C47.7771 81.7265 47.8257 81.9946 47.909 82.2488H20.0049L22.0405 70.4079C22.8291 66.9229 25.8685 64.4927 29.436 64.4927C29.9154 64.4927 30.3044 64.1028 30.3044 63.6223C30.3044 63.1419 29.9154 62.7519 29.436 62.7519C25.0418 62.7519 21.3006 65.7531 20.3384 70.0493C20.3384 70.0632 20.3315 70.0772 20.3315 70.0911L18.2403 82.2488H11.6681L16.7327 59.6429C17.0245 58.3408 17.6498 57.1988 18.5043 56.2866C18.5321 56.2623 18.5564 56.2344 18.5807 56.2066C19.8903 54.8488 21.7209 54.0271 23.7322 54.0271H40.7533C42.6985 54.0271 44.5847 54.8348 45.9325 56.2414C45.9707 56.2832 46.0159 56.3215 46.0645 56.3528C46.1861 56.4364 46.332 56.4886 46.4848 56.499C46.5057 56.499 46.5231 56.506 46.5439 56.506C46.5474 56.506 46.5508 56.506 46.5578 56.506C46.5856 56.506 46.6134 56.499 46.6412 56.499C46.6655 56.499 46.6898 56.499 46.7141 56.4921C46.7488 56.4851 46.7766 56.4746 46.8114 56.4642C46.8357 56.4572 46.8565 56.4503 46.8808 56.4433C46.9121 56.4294 46.9399 56.4155 46.9712 56.3981C46.992 56.3876 47.0128 56.3772 47.0337 56.3632C47.0649 56.3424 47.0927 56.318 47.1205 56.2971C47.1344 56.2866 47.1518 56.2762 47.1622 56.2623C47.1622 56.2623 47.1622 56.2588 47.1657 56.2553C47.1935 56.2309 47.2143 56.1996 47.2386 56.1718C47.2525 56.1543 47.2664 56.1404 47.2803 56.123C47.2942 56.1021 47.3012 56.0812 47.3151 56.0603C47.3324 56.0325 47.3498 56.0012 47.3637 55.9733C47.3637 55.9663 47.3672 55.9559 47.3706 55.9489C47.388 55.9037 47.4019 55.8584 47.4123 55.8097C47.4123 55.8027 47.4123 55.7923 47.4123 55.7853C47.4227 55.7366 47.4262 55.6878 47.4262 55.6391C47.4262 55.6391 47.4262 55.6391 47.4262 55.6356V28.9389C47.4262 28.9075 47.4193 28.8762 47.4158 28.8449C47.4193 28.7961 47.4262 28.7509 47.4262 28.7021C47.4262 26.5435 41.4098 17.7595 41.1527 17.387C38.1966 13.0803 35.8693 10.2289 34.1915 8.85016L39.6139 6.13105C40.1176 5.8769 40.4302 5.37207 40.4302 4.80457C40.4302 4.23707 40.1176 3.73225 39.6139 3.47809L32.9583 0.156666C32.4963 -0.0731177 31.9579 -0.0522283 31.5202 0.222816C31.0825 0.494379 30.8185 0.964392 30.8185 1.48315V8.16081C30.8185 8.2757 30.8324 8.38711 30.8567 8.49504C28.7517 9.95034 25.7643 13.8323 23.3953 17.2059C21.0436 20.5552 17.0627 26.7246 17.0627 28.6186C17.0627 28.6882 17.0662 28.7543 17.0766 28.8205C17.0697 28.8657 17.0627 28.9075 17.0627 28.9563V55.2944C16.0936 56.3946 15.3849 57.7454 15.0445 59.2704L9.89305 82.2557H0.868421C0.389053 82.2557 0 82.6457 0 83.1261C0 83.6066 0.389053 83.9965 0.868421 83.9965H131.132C131.611 83.9965 132 83.6066 132 83.1261C132 82.6457 131.611 82.2557 131.132 82.2557V82.2592ZM104.523 32.3125C101.803 32.3125 99.7712 31.1218 99.7712 30.0564C99.7712 22.9227 98.4616 15.4721 95.9814 11.9348C103.554 13.6339 109.275 21.1123 109.275 30.0564C109.275 31.1218 107.243 32.3125 104.523 32.3125ZM120.051 30.0564C120.051 31.1218 118.196 32.3125 115.531 32.3125C112.867 32.3125 111.012 31.1253 111.012 30.0564C111.012 22.6859 107.424 16.2241 102.078 12.6903C112.554 15.2806 120.051 22.0871 120.051 30.0564ZM92.7092 8.80142C93.7756 8.80142 94.7065 9.24706 95.2137 9.90856C94.3869 9.85982 93.5533 9.82849 92.7092 9.82849C91.8651 9.82849 91.0314 9.85982 90.2046 9.90856C90.7118 9.24706 91.6462 8.80142 92.7092 8.80142ZM69.8871 32.3125C67.2227 32.3125 65.3678 31.1253 65.3678 30.0564C65.3678 22.0871 72.864 15.2806 83.3406 12.6903C77.9946 16.2241 74.4063 22.6859 74.4063 30.0564C74.4063 31.1218 72.5514 32.3125 69.8871 32.3125ZM80.8952 32.3125C78.1753 32.3125 76.1432 31.1218 76.1432 30.0564C76.1432 21.1123 81.8643 13.6339 89.437 11.9348C86.9567 15.4721 85.6472 22.9262 85.6472 30.0564C85.6472 31.1218 83.6151 32.3125 80.8952 32.3125ZM87.384 30.0564C87.384 19.4759 90.1942 11.5693 92.7092 11.5693C95.2241 11.5693 98.0343 19.4759 98.0343 30.0564C98.0343 31 96.0092 32.3125 92.7092 32.3125C89.4092 32.3125 87.384 31 87.384 30.0564ZM91.4413 56.3006V33.9906C91.8512 34.0289 92.275 34.0533 92.7092 34.0533C93.1434 34.0533 93.5672 34.0289 93.9771 33.9906V56.3006H91.4413ZM18.7996 53.7834V29.8301H19.9285V47.4539C19.9285 47.4539 19.9285 47.4574 19.9285 47.4609V53.1497C19.536 53.3343 19.1574 53.5432 18.7996 53.7834ZM42.8271 29.8301V43.4919L41.4932 42.0818C41.0798 41.6431 40.4927 41.3925 39.8779 41.3925C39.2631 41.3925 38.676 41.6431 38.2626 42.0818L36.0603 44.411L33.858 42.0818C33.4446 41.6431 32.8576 41.3925 32.2427 41.3925C31.6314 41.3925 31.0443 41.6431 30.6275 42.0818L28.4252 44.411L26.2228 42.0818C25.8095 41.6431 25.2224 41.3925 24.6076 41.3925C23.9927 41.3925 23.4057 41.6431 22.9923 42.0818L21.6584 43.4919V29.8301H42.8201H42.8271ZM45.6928 53.8043C45.3316 53.5641 44.9529 53.3517 44.5639 53.1637V47.4609C44.5639 47.4609 44.5639 47.4574 44.5639 47.4539V29.8301H45.6928V53.8043ZM29.2971 46.1587C29.2971 46.0717 29.3318 45.9847 29.3978 45.915L31.8884 43.2795C32.0065 43.1541 32.1628 43.1333 32.2427 43.1333C32.3226 43.1333 32.4755 43.1507 32.597 43.2795L35.0877 45.915C35.1537 45.9847 35.1884 46.0717 35.1884 46.1587V52.3037H29.2936V46.1587H29.2971ZM21.6654 52.5474V46.1587C21.6654 46.0717 21.7001 45.9847 21.7661 45.915L24.2602 43.2795C24.3783 43.1541 24.5346 43.1333 24.6145 43.1333C24.6944 43.1333 24.8473 43.1507 24.9688 43.2795L27.4595 45.915C27.5255 45.9847 27.5602 46.0717 27.5602 46.1587V52.3037H23.7357C23.0236 52.3037 22.3323 52.3942 21.6654 52.5509V52.5474ZM36.9322 52.3002V46.1553C36.9322 46.0682 36.9669 45.9812 37.0329 45.9115L39.5236 43.276C39.6417 43.1507 39.798 43.1298 39.8779 43.1298C39.9578 43.1298 40.1106 43.1472 40.2322 43.276L42.7228 45.9115C42.7888 45.9812 42.8236 46.0682 42.8236 46.1553V52.5509C42.1497 52.3873 41.4549 52.3002 40.7533 52.3002H36.9287H36.9322ZM32.5519 1.90094L38.3773 4.82198L32.5519 7.74302V1.90094ZM24.6736 18.4071C28.9532 12.2865 31.5932 9.80063 32.2879 9.64396C32.9861 9.80412 35.5358 12.2691 39.8015 18.4941C42.9035 23.0202 44.8939 26.5923 45.4983 28.0859H18.9281C19.4318 26.6724 21.3979 23.0968 24.6736 18.4071ZM54.2346 74.7529C54.2346 74.3108 54.5959 73.9487 55.0371 73.9487H60.1017C60.5428 73.9487 60.9041 74.3108 60.9041 74.7529C60.9041 75.1951 60.5428 75.5572 60.1017 75.5572H55.0371C54.5959 75.5572 54.2346 75.1951 54.2346 74.7529ZM54.2346 71.4036C54.2346 70.9615 54.5959 70.5994 55.0371 70.5994H60.1017C60.5428 70.5994 60.9041 70.9615 60.9041 71.4036C60.9041 71.8458 60.5428 72.2079 60.1017 72.2079H55.0371C54.5959 72.2079 54.2346 71.8458 54.2346 71.4036ZM71.8914 72.1905L68.7755 73.7781C68.5879 73.8756 68.369 73.8895 68.1641 73.8233C67.9592 73.7572 67.7924 73.6144 67.6952 73.4264C67.5979 73.235 67.5805 73.0191 67.65 72.8137C67.716 72.6083 67.8584 72.4412 68.046 72.3437L71.1619 70.7561C71.2765 70.6969 71.4016 70.669 71.5232 70.669C71.8149 70.669 72.0998 70.8292 72.2387 71.1077C72.4402 71.5046 72.2804 71.9886 71.8879 72.1905H71.8914ZM70.1441 65.5093C69.0325 65.5093 68.0877 64.7782 67.7612 63.772L68.8172 63.5109L72.6035 62.5709C72.6278 62.7136 72.6452 62.8564 72.6452 62.9991C72.6452 64.3813 71.5232 65.5093 70.1406 65.5093H70.1441ZM72.9335 60.0015C72.8605 60.005 72.7876 60.0154 72.7112 60.0328L69.1993 60.9032L64.9023 52.1888C65.8854 51.3532 67.1533 50.8484 68.5393 50.8484C71.6413 50.8484 74.1666 53.3795 74.1666 56.4886C74.1666 57.7872 73.729 59.0058 72.9335 60.0015ZM68.5427 47.3286C72.8571 47.3286 76.5669 50.549 77.1783 54.8209C77.1957 54.9532 77.1366 55.0472 77.1019 55.089C77.0602 55.1377 76.9838 55.1969 76.8622 55.1969H75.7854C75.174 51.7397 72.1623 49.1007 68.5393 49.1007C66.4412 49.1007 64.541 49.9885 63.1967 51.4124C63.1898 51.4159 63.1794 51.4159 63.1724 51.4229C62.8459 51.5865 62.627 51.8755 62.5402 52.2028C61.9566 53.0244 61.5433 53.9714 61.3314 54.995C60.8694 54.8731 60.4004 54.7756 59.928 54.699C60.5845 50.5037 64.225 47.3216 68.5427 47.3216V47.3286ZM61.1751 56.7601L61.1438 59.434C61.1438 59.998 60.6887 60.4541 60.126 60.4541H53.6024C53.0397 60.4541 52.5846 59.998 52.5846 59.434V57.2441C54.1235 56.6139 55.8047 56.2623 57.5659 56.2623C58.7956 56.2623 60.0044 56.4329 61.1716 56.7636L61.1751 56.7601ZM39.3117 65.7879C39.2839 65.7983 39.2665 65.7879 39.2631 65.7879L34.6743 63.0931C34.6743 63.0931 34.6569 63.0827 34.6535 63.0653C34.6465 63.0409 34.6604 63.0235 34.6639 63.02C37.3178 59.1938 42.1879 57.8359 46.3772 59.6046C46.2625 59.7334 46.1479 59.8657 46.0367 59.998C42.7819 60.1791 39.996 62.55 39.3117 65.7914V65.7879ZM47.8778 73.6005C47.7319 74.0183 47.2734 74.2411 46.8565 74.0984L43.5565 72.9495C43.3551 72.8798 43.1953 72.7336 43.098 72.5387C43.0042 72.3437 42.9903 72.1243 43.0598 71.9259C43.1293 71.724 43.2752 71.5638 43.4697 71.4663C43.5808 71.4106 43.7024 71.3828 43.8205 71.3828C43.9074 71.3828 43.9977 71.3967 44.0811 71.428L47.3811 72.577C47.7979 72.7232 48.0202 73.1827 47.8743 73.6005H47.8778ZM47.9716 70.8605L44.3902 69.6141C44.3902 69.5654 44.3867 69.5201 44.3867 69.4714C44.3867 65.7948 45.8943 62.4664 48.319 60.0711C48.3988 60.0189 48.4683 59.9493 48.5308 59.8692C49.236 59.2007 50.0141 58.6123 50.8513 58.111V59.434C50.8513 60.9554 52.0879 62.1949 53.6059 62.1949H60.1295C61.6475 62.1949 62.8841 60.9554 62.8841 59.4444L62.9223 56.1578C62.9571 55.552 63.0925 54.9776 63.3009 54.4379L66.785 61.502L66.4933 61.5752C65.8402 61.7353 65.4442 62.3968 65.604 63.0514C65.6631 63.2916 65.7916 63.49 65.9583 63.6467C66.271 65.6834 68.0252 67.2501 70.1441 67.2501C70.2865 67.2501 70.4255 67.2432 70.5644 67.2292C70.6617 67.7967 70.7173 68.3712 70.7416 68.9457L67.1289 70.7874C65.2254 67.3128 61.5711 65.1124 57.5728 65.1124C56.4752 65.1124 55.4018 65.2796 54.384 65.5929C54.384 65.5929 54.3805 65.5929 54.377 65.5929C54.3597 65.5964 54.3458 65.6033 54.3319 65.6103C51.6433 66.4529 49.3402 68.319 47.9751 70.857L47.9716 70.8605ZM57.5694 66.8532C58.5559 66.8532 59.5181 67.0169 60.4247 67.3163C60.7096 67.4451 60.9076 67.7306 60.9076 68.0509C60.9076 68.4931 60.5463 68.8551 60.1052 68.8551H55.0405C54.5994 68.8551 54.2381 68.4931 54.2381 68.0509C54.2381 67.7341 54.4257 67.4521 54.7071 67.3198C55.6172 67.0169 56.5828 66.8497 57.5763 66.8497L57.5694 66.8532ZM54.2346 78.1022C54.2346 77.66 54.5959 77.298 55.0371 77.298H60.1017C60.5428 77.298 60.9041 77.66 60.9041 78.1022C60.9041 78.5444 60.5428 78.9064 60.1017 78.9064H55.0371C54.5959 78.9064 54.2346 78.5444 54.2346 78.1022ZM50.3233 82.2557C49.8821 82.2557 49.5208 81.8936 49.5208 81.4515C49.5208 81.0093 49.8821 80.6472 50.3233 80.6472H64.8189C65.2601 80.6472 65.6214 81.0093 65.6214 81.4515C65.6214 81.8936 65.2601 82.2557 64.8189 82.2557H50.3233Z" fill="#0094D2" stroke="#0094D2"/>
</g>
<defs>
<clipPath id="clip0_1_91">
<rect width="132" height="84" fill="white"/>
</clipPath>
</defs>
</svg>
