<svg width="26" height="26" viewBox="0 0 26 26" fill="none" xmlns="http://www.w3.org/2000/svg">
<path d="M14.1379 7.37998L9.66775 11.9029C9.56893 12.0009 9.4905 12.1175 9.43698 12.2459C9.38345 12.3744 9.3559 12.5122 9.3559 12.6514C9.3559 12.7906 9.38345 12.9284 9.43698 13.0568C9.4905 13.1853 9.56893 13.3019 9.66775 13.3999L14.1379 17.8701C14.2359 17.9689 14.3525 18.0473 14.481 18.1009C14.6095 18.1544 14.7473 18.1819 14.8864 18.1819C15.0256 18.1819 15.1634 18.1544 15.2919 18.1009C15.4204 18.0473 15.537 17.9689 15.635 17.8701C15.8314 17.6726 15.9416 17.4053 15.9416 17.1268C15.9416 16.8483 15.8314 16.5811 15.635 16.3836L11.9028 12.6514L15.635 8.91923C15.8298 8.72286 15.9396 8.45781 15.9407 8.18123C15.9415 8.04248 15.9149 7.90494 15.8625 7.77649C15.81 7.64803 15.7327 7.5312 15.635 7.43269C15.5405 7.33035 15.4267 7.24774 15.3001 7.18964C15.1735 7.13154 15.0366 7.09911 14.8974 7.0942C14.7582 7.0893 14.6194 7.11203 14.4891 7.16108C14.3587 7.21013 14.2394 7.28453 14.1379 7.37998Z" fill="#686868"/>
</svg>
