<svg width="26" height="26" viewBox="0 0 26 26" fill="none" xmlns="http://www.w3.org/2000/svg">
<path d="M11.1649 17.9228L15.635 13.3999C15.7339 13.3019 15.8123 13.1853 15.8658 13.0569C15.9193 12.9284 15.9469 12.7906 15.9469 12.6514C15.9469 12.5122 15.9193 12.3744 15.8658 12.246C15.8123 12.1175 15.7339 12.0009 15.635 11.9029L11.1649 7.4327C11.0669 7.33389 10.9503 7.25546 10.8218 7.20193C10.6933 7.14841 10.5555 7.12085 10.4163 7.12085C10.2772 7.12085 10.1394 7.14841 10.0109 7.20193C9.88242 7.25546 9.76581 7.33389 9.6678 7.4327C9.47144 7.63024 9.36123 7.89745 9.36123 8.17597C9.36123 8.4545 9.47144 8.72171 9.6678 8.91924L13.4 12.6514L9.6678 16.3836C9.47303 16.5799 9.36323 16.845 9.36206 17.1216C9.36126 17.2603 9.38785 17.3979 9.44032 17.5263C9.49279 17.6548 9.57009 17.7716 9.6678 17.8701C9.76229 17.9724 9.87611 18.0551 10.0027 18.1132C10.1293 18.1713 10.2662 18.2037 10.4054 18.2086C10.5446 18.2135 10.6834 18.1908 10.8137 18.1417C10.9441 18.0927 11.0634 18.0183 11.1649 17.9228Z" fill="#686868"/>
</svg>
