<svg width="21" height="21" viewBox="0 0 21 21" fill="none" xmlns="http://www.w3.org/2000/svg">
<path d="M16.625 3.5H4.375C3.67881 3.5 3.01113 3.77656 2.51884 4.26884C2.02656 4.76113 1.75 5.42881 1.75 6.125V14.875C1.75 15.5712 2.02656 16.2389 2.51884 16.7312C3.01113 17.2234 3.67881 17.5 4.375 17.5H16.625C17.3212 17.5 17.9889 17.2234 18.4812 16.7312C18.9734 16.2389 19.25 15.5712 19.25 14.875V6.125C19.25 5.42881 18.9734 4.76113 18.4812 4.26884C17.9889 3.77656 17.3212 3.5 16.625 3.5ZM16.2663 5.25L11.1213 10.395C11.0399 10.477 10.9431 10.5421 10.8365 10.5865C10.7299 10.631 10.6155 10.6538 10.5 10.6538C10.3845 10.6538 10.2701 10.631 10.1635 10.5865C10.0569 10.5421 9.96009 10.477 9.87875 10.395L4.73375 5.25H16.2663ZM17.5 14.875C17.5 15.1071 17.4078 15.3296 17.2437 15.4937C17.0796 15.6578 16.8571 15.75 16.625 15.75H4.375C4.14294 15.75 3.92038 15.6578 3.75628 15.4937C3.59219 15.3296 3.5 15.1071 3.5 14.875V6.48375L8.645 11.6287C9.13719 12.1203 9.80437 12.3964 10.5 12.3964C11.1956 12.3964 11.8628 12.1203 12.355 11.6287L17.5 6.48375V14.875Z" fill="#0094D2"/>
</svg>
