<svg width="19" height="19" viewBox="0 0 19 19" fill="none" xmlns="http://www.w3.org/2000/svg">
<path d="M15.39 10.2917C15.2159 10.2917 15.0338 10.2362 14.8596 10.1967C14.5069 10.1189 14.1603 10.0158 13.8225 9.88791C13.4553 9.7543 13.0516 9.76124 12.6891 9.90739C12.3266 10.0535 12.031 10.3286 11.8592 10.6796L11.685 11.0358C10.9139 10.6069 10.2054 10.0741 9.57919 9.4525C8.95754 8.8263 8.42479 8.11774 7.99585 7.34666L8.32835 7.125C8.67935 6.95314 8.95439 6.65754 9.10054 6.29509C9.24669 5.93263 9.25363 5.52893 9.12002 5.16166C8.99432 4.82316 8.89118 4.47671 8.81127 4.12458C8.77169 3.95041 8.74002 3.76833 8.71627 3.58625C8.62013 3.02861 8.32805 2.52363 7.89264 2.16223C7.45722 1.80083 6.90707 1.60677 6.34127 1.615H3.96627C3.62509 1.61179 3.28722 1.68214 2.97566 1.82125C2.66411 1.96036 2.38619 2.16496 2.16082 2.42114C1.93545 2.67731 1.76792 2.97903 1.66963 3.30577C1.57135 3.63251 1.54462 3.97659 1.59127 4.31458C2.01302 7.63117 3.52771 10.7127 5.89608 13.0725C8.26444 15.4323 11.3515 16.9357 14.6696 17.3454H14.9704C15.5542 17.3463 16.1179 17.1321 16.5538 16.7437C16.8042 16.5197 17.0043 16.2451 17.1408 15.9381C17.2772 15.631 17.347 15.2985 17.3454 14.9625V12.5875C17.3357 12.0376 17.1355 11.5081 16.7789 11.0894C16.4223 10.6707 15.9314 10.3887 15.39 10.2917ZM15.7859 15.0417C15.7857 15.1541 15.7616 15.2652 15.7152 15.3675C15.6688 15.4699 15.6011 15.5612 15.5167 15.6354C15.4285 15.7122 15.3251 15.7695 15.2132 15.8036C15.1014 15.8377 14.9836 15.8479 14.8675 15.8333C11.9026 15.4532 9.14871 14.0968 7.04009 11.9781C4.93147 9.85949 3.58818 7.09914 3.2221 4.1325C3.2095 4.01653 3.22054 3.89922 3.25456 3.78764C3.28858 3.67606 3.34487 3.57254 3.42002 3.48333C3.49421 3.39888 3.58553 3.3312 3.6879 3.28479C3.79028 3.23838 3.90136 3.21431 4.01377 3.21416H6.38877C6.57287 3.21007 6.75264 3.27028 6.89713 3.38443C7.04163 3.49858 7.14181 3.65953 7.18043 3.83958C7.2121 4.05597 7.25169 4.26972 7.29919 4.48083C7.39064 4.89815 7.51235 5.30826 7.66335 5.70791L6.55502 6.2225C6.46025 6.26598 6.37501 6.32775 6.30418 6.40426C6.23336 6.48077 6.17834 6.57053 6.1423 6.66836C6.10626 6.76619 6.08989 6.87018 6.09415 6.97436C6.0984 7.07854 6.1232 7.18085 6.1671 7.27541C7.30647 9.71593 9.26825 11.6777 11.7088 12.8171C11.9015 12.8963 12.1177 12.8963 12.3104 12.8171C12.4092 12.7818 12.4999 12.7272 12.5774 12.6565C12.6548 12.5859 12.7175 12.5005 12.7617 12.4054L13.2525 11.2971C13.6618 11.4434 14.0795 11.565 14.5034 11.6612C14.7145 11.7087 14.9282 11.7483 15.1446 11.78C15.3246 11.8186 15.4856 11.9188 15.5998 12.0633C15.7139 12.2078 15.7741 12.3876 15.77 12.5717L15.7859 15.0417Z" fill="#0094D2"/>
</svg>
